{"title":"Underworld.Awakening.2012.RC.720p.BluRay.x264.TDP","uid":7049277,"size":4685930490,"categoryP":"video","categoryS":"hd___movies","magnet":"?xt=urn:btih:152cee9a55d4d1b0bb43dfe9084a4b51491023fd&amp;dn=+Underworld.Awakening.2012.RC.720p.BluRay.x264.TDP&amp;tr=udp%3A%2F%2Ftracker.openbittorrent.com%3A80&amp;tr=udp%3A%2F%2Fopen.demonii.com%3A1337&amp;tr=udp%3A%2F%2Ftracker.coppersurfer.tk%3A6969&amp;tr=udp%3A%2F%2Fexodus.desync.com%3A6969","seeders":2,"leechers":0,"uploader":"DibyaTPB","files":4,"time":1329857582,"description":"Come Join Us AT\n \n &lt;a href=&quot; http://publichd.org/&quot; rel=&quot;nofollow&quot; target=&quot;_NEW&quot;&gt; http://publichd.org/&lt;/a&gt;\n\nDownload High Definition Torrents\nMovies / TV Shows / Documentaries\n\n\n-----------------------------------------------------------------\n-----------------------------------------------------------------\n\n\n\n\nUnderworld.Awakening.2012.RC.720p.BluRay.x264.TDP\n\n\n\nGeneral\n\nComplete name                            : Underworld.Awakening.2012.RC.720p.BluRay.x264-TDP.mkv\nFormat                                   : Matroska\nFormat version                           : Version 2\nFile size                                : 4.31 GiB\nDuration                                 : 1h 25mn\nOverall bit rate                         : 7 242 Kbps\nSOURCE                                   : RC 720p\nSUBTITLES                                : HC english for non english parts\n\nVideo\nID                                       : 1\nFormat                                   : AVC\nFormat/Info                              : Advanced Video Codec\nFormat profile                           : &lt;a class=&quot;__cf_email__&quot; href=&quot;/cdn-cgi/l/email-protection&quot; data-cfemail=&quot;afe2cec6c1efe39c819e&quot;&gt;[email&amp;#160;protected]&lt;/a&gt;&lt;script cf-hash='f9e31' type=&quot;text/javascript&quot;&gt;\n/* &lt;![CDATA[ */!function(){try{var t=&quot;currentScript&quot;in document?document.currentScript:function(){for(var t=document.getElementsByTagName(&quot;script&quot;),e=t.length;e--;)if(t[e].getAttribute(&quot;cf-hash&quot;))return t[e]}();if(t&amp;&amp;t.previousSibling){var e,r,n,i,c=t.previousSibling,a=c.getAttribute(&quot;data-cfemail&quot;);if(a){for(e=&quot;&quot;,r=parseInt(a.substr(0,2),16),n=2;a.length-n;n+=2)i=parseInt(a.substr(n,2),16)^r,e+=String.fromCharCode(i);e=document.createTextNode(e),c.parentNode.replaceChild(e,c)}}}catch(u){}}();/* ]]&gt; */&lt;/script&gt;\nFormat settings, CABAC                   : Yes\nFormat settings, ReFrames                : 2 frames\nMuxing mode                              : Header stripping\nCodec ID                                 : V_MPEG4/ISO/AVC\nDuration                                 : 1h 25mn\nBit rate                                 : 6 650 Kbps\nWidth                                    : 1 280 pixels\nHeight                                   : 720 pixels\nDisplay aspect ratio                     : 16:9\nFrame rate                               : 25.000 fps\nColor space                              : YUV\nChroma subsampling                       : 4:2:0\nBit depth                                : 8 bits\nScan type                                : Progressive\nBits/(Pixel*Frame)                       : 0.289\nStream size                              : 3.96 GiB (92%)\nWriting library                          : x264 core 77\nDefault                                  : Yes\nForced                                   : No\n\nAudio\nID                                       : Thx OBSERVER\nFormat                                   : AC-3\nFormat/Info                              : Audio Coding 3\nMode extension                           : CM (complete main)\nMuxing mode                              : Header stripping\nCodec ID                                 : A_AC3\nDuration                                 : 1h 25mn\nBit rate mode                            : Constant\nBit rate                                 : 448 Kbps\nChannel(s)                               : 6 channels\nChannel positions                        : Front: L C R, Side: L R, LFE\nSampling rate                            : 48.0 KHz\nBit depth                                : 16 bits\nCompression mode                         : Lossy\nStream size                              : 273 MiB (6%)\nDefault                                  : Yes\nForced                                   : No\n\nIMDB : http://www.imdb.com/title/tt1496025/\n\nPlot :\nWhen human forces discover the existence of the Vampire and Lycan clans,\na war to eradicate both species commences. The vampire warrioress Selene\nleads the battle against humankind.\n\n\n &lt;a href=&quot;\nhttp://shareimage.ro/images/hex0idd14rclpr5or.jpg&quot; rel=&quot;nofollow&quot; target=&quot;_NEW&quot;&gt;\nhttp://shareimage.ro/images/hex0idd14rclpr5or.jpg&lt;/a&gt;\n &lt;a href=&quot;\nhttp://shareimage.ro/images/qw65lbpgkkjrdjjaw5pw.png&quot; rel=&quot;nofollow&quot; target=&quot;_NEW&quot;&gt;\nhttp://shareimage.ro/images/qw65lbpgkkjrdjjaw5pw.png&lt;/a&gt;","torrent":{"xt":"urn:btih:152cee9a55d4d1b0bb43dfe9084a4b51491023fd","amp;dn":"+Underworld.Awakening.2012.RC.720p.BluRay.x264.TDP","amp;tr":["udp%3A%2F%2Ftracker.openbittorrent.com%3A80","udp%3A%2F%2Fopen.demonii.com%3A1337","udp%3A%2F%2Ftracker.coppersurfer.tk%3A6969","udp%3A%2F%2Fexodus.desync.com%3A6969"],"infoHash":"152cee9a55d4d1b0bb43dfe9084a4b51491023fd","infoHashBuffer":{"type":"Buffer","data":[21,44,238,154,85,212,209,176,187,67,223,233,8,74,75,81,73,16,35,253]},"announce":[],"urlList":[]}}